<?xml version="1.0" encoding="iso-8859-1"?>
<!-- Generator: Adobe Illustrator 19.0.0, SVG Export Plug-In . SVG Version: 6.00 Build 0)  -->
<svg version="1.1" id="Capa_1" xmlns="http://www.w3.org/2000/svg" xmlns:xlink="http://www.w3.org/1999/xlink" x="0px" y="0px"
	 viewBox="0 0 512 512" style="enable-background:new 0 0 512 512;" xml:space="preserve">
<g>
	<g>
		<path d="M446,0H66c-5.523,0-10,4.477-10,10v492c0,5.523,4.477,10,10,10h380c5.522,0,10-4.477,10-10V10C456,4.477,451.522,0,446,0z
			 M123,492H76v-20h47V492z M123,452H76v-30h47V452z M176,492h-33v-20h33V492z M176,452h-33v-30h33V452z M236,492h-40v-20h40V492z
			 M236,452h-40v-30h40V452z M436,492H256v-70h180V492z M436,402H76V60h360V402z M436,40H76V20h360V40z"/>
	</g>
</g>
<g>
	<g>
		<path d="M406,442h-80c-5.51,0-10,4.49-10,10s4.49,10,10,10h80c5.51,0,10-4.49,10-10S411.51,442,406,442z"/>
	</g>
</g>
<g>
	<g>
		<path d="M286,442c-5.51,0-10,4.49-10,10s4.49,10,10,10s10-4.49,10-10S291.51,442,286,442z"/>
	</g>
</g>
<g>
	<g>
		<path d="M370.992,113.789c-0.112-5.239-4.669-9.733-9.895-9.782C361.064,104.007,232,104,232,104
			c-2.671,0-5.346,1.137-7.198,3.059c0,0-80.972,83.971-81,84C142.053,192.872,141,195.488,141,198c0,0,0,139.969,0,140
			c0,1.331,0.295,2.623,0.82,3.812c1.571,3.554,5.203,6.188,9.18,6.188c0,0,139.899,0,139.998,0
			c2.666,0.013,5.794-1.406,7.576-3.471l70-81.2c1.564-1.815,2.426-4.132,2.426-6.529C371,256.8,370.993,113.835,370.992,113.789z
			 M281,328H174.102c1.734-3.726,1.062-8.296-2.022-11.34c-2.897-2.859-7.362-3.678-11.08-2.028V208h70.34h0.04H281V328z
			 M286.316,188H231.48h-0.07h-56.875l47.289-49.04l-0.134,18.97c-0.04,5.51,4.42,10.03,9.93,10.07h0.04l0.03-0.05V168
			c5.48,0,9.96-4.46,10-9.93l0.24-34.07h97.719L286.316,188z M351,247h-20c-5.51,0-10,4.49-10,10s4.49,10,10,10h8.004L301,311.084
			V201.621l50-60V247z"/>
	</g>
</g>
<g>
	<g>
		<path d="M251,247h-9.931l0.061-8.93c0.04-5.52-4.41-10.03-9.93-10.07h-0.07c-5.47,0-9.96,4.45-10,9.93l-0.102,14.927l-6.878,6.963
			c-3.87,3.93-3.83,10.27,0.09,14.15c1.885,1.866,4.458,2.786,7.029,2.78c2.616-0.006,5.231-0.97,7.12-2.87l6.796-6.88H251
			c5.51,0,10-4.49,10-10S256.51,247,251,247z"/>
	</g>
</g>
<g>
	<g>
		<circle cx="193.16" cy="295.31" r="10"/>
	</g>
</g>
<g>
</g>
<g>
</g>
<g>
</g>
<g>
</g>
<g>
</g>
<g>
</g>
<g>
</g>
<g>
</g>
<g>
</g>
<g>
</g>
<g>
</g>
<g>
</g>
<g>
</g>
<g>
</g>
<g>
</g>
</svg>
